<svg width="24" height="24" viewBox="0 0 24 24" fill="none" xmlns="http://www.w3.org/2000/svg">
<path d="M12 2C13.9778 2 15.9112 2.58649 17.5557 3.6853C19.2002 4.78411 20.4819 6.3459 21.2388 8.17316C21.9957 10.0004 22.1937 12.0111 21.8078 13.9509C21.422 15.8907 20.4696 17.6725 19.0711 19.071C17.6725 20.4696 15.8907 21.422 13.9509 21.8078C12.0111 22.1937 10.0004 21.9956 8.17318 21.2388C6.34592 20.4819 4.78414 19.2002 3.68533 17.5557C2.58651 15.9112 2.00002 13.9778 2.00002 12C2.00337 9.34885 3.05801 6.80726 4.93264 4.93262C6.80728 3.05798 9.34887 2.00334 12 2ZM12 20.2231C13.6264 20.2231 15.2163 19.7409 16.5685 18.8373C17.9208 17.9337 18.9748 16.6494 19.5972 15.1468C20.2196 13.6443 20.3824 11.9909 20.0652 10.3957C19.7479 8.8006 18.9647 7.33537 17.8147 6.18534C16.6646 5.03532 15.1994 4.25214 13.6043 3.93485C12.0091 3.61755 10.3557 3.7804 8.85315 4.40279C7.35056 5.02518 6.06628 6.07916 5.16271 7.43145C4.25914 8.78374 3.77686 10.3736 3.77686 12C3.77909 14.1802 4.64617 16.2705 6.18783 17.8122C7.72949 19.3538 9.81978 20.2209 12 20.2231Z" fill="#0D0A0F"/>
<path d="M11.0652 7.263C11.0766 7.50351 11.1802 7.73039 11.3544 7.89656C11.5287 8.06274 11.7602 8.15544 12.001 8.15544C12.2418 8.15544 12.4733 8.06274 12.6476 7.89656C12.8218 7.73039 12.9254 7.50351 12.9368 7.263C12.9408 7.1382 12.9194 7.01389 12.8739 6.8976C12.8285 6.78131 12.7598 6.67546 12.6722 6.58648C12.5846 6.4975 12.4799 6.42724 12.3643 6.37996C12.2488 6.33268 12.1248 6.30936 11.9999 6.31142C11.8743 6.30587 11.7488 6.32681 11.6318 6.37289C11.5147 6.41898 11.4087 6.48917 11.3205 6.57891C11.2324 6.66866 11.1641 6.77594 11.1201 6.8938C11.0761 7.01165 11.0574 7.13744 11.0652 7.263ZM12.7494 17.9072V9.58931H11.2378V17.8988L12.7494 17.9072Z" fill="#0D0A0F"/>
</svg>
