<svg width="16" height="17" viewBox="0 0 16 17" fill="none" xmlns="http://www.w3.org/2000/svg">
<path d="M13.3333 8.6829C13.3333 8.93603 13.1451 9.14523 12.9011 9.17834L12.8333 9.1829L4.04392 9.1825L7.21924 12.3449C7.41493 12.5397 7.41561 12.8563 7.22077 13.052C7.04364 13.2299 6.7659 13.2466 6.56984 13.1018L6.51366 13.0535L2.48033 9.03748C2.45453 9.0118 2.43213 8.98401 2.41311 8.95465C2.40774 8.94582 2.40228 8.93678 2.39709 8.92756C2.39233 8.91965 2.38802 8.91145 2.38396 8.90315C2.37831 8.89108 2.3728 8.8786 2.36779 8.86588C2.36372 8.85606 2.36032 8.84652 2.35722 8.8369C2.35354 8.82497 2.34996 8.81226 2.34688 8.79935C2.34459 8.79034 2.34278 8.78167 2.3412 8.77296C2.33898 8.76001 2.33708 8.7466 2.33573 8.73304C2.33457 8.72269 2.33387 8.71244 2.33348 8.70218C2.33338 8.69596 2.33325 8.68945 2.33325 8.6829L2.3335 8.66354C2.33389 8.65372 2.33456 8.64392 2.33551 8.63414L2.33325 8.6829C2.33325 8.65135 2.33617 8.62048 2.34176 8.59055C2.34306 8.5834 2.3446 8.57606 2.34631 8.56876C2.34987 8.5537 2.35397 8.53921 2.3587 8.525C2.36102 8.51794 2.36372 8.5104 2.36661 8.50291C2.37245 8.48786 2.3788 8.47352 2.38579 8.45955C2.38903 8.45298 2.39267 8.44611 2.39647 8.4393C2.40272 8.42819 2.40916 8.41764 2.41597 8.40735C2.42077 8.40007 2.42609 8.39249 2.43164 8.38504L2.43597 8.37927C2.44944 8.36167 2.46405 8.345 2.4797 8.32935L2.4803 8.32889L6.51363 4.31222C6.7093 4.11736 7.02588 4.11802 7.22074 4.31368C7.39788 4.49156 7.41344 4.76937 7.2678 4.96481L7.21927 5.02079L4.04525 8.1825L12.8333 8.1829C13.1094 8.1829 13.3333 8.40676 13.3333 8.6829Z" fill="#666666"/>
</svg>
