<svg width="21" height="20" viewBox="0 0 21 20" fill="none" xmlns="http://www.w3.org/2000/svg">
<path d="M7.14359 5.71002L9.43359 3.41002V13C9.43359 13.2652 9.53895 13.5196 9.72649 13.7071C9.91402 13.8947 10.1684 14 10.4336 14C10.6988 14 10.9532 13.8947 11.1407 13.7071C11.3282 13.5196 11.4336 13.2652 11.4336 13V3.41002L13.7236 5.71002C13.8166 5.80375 13.9272 5.87814 14.049 5.92891C14.1709 5.97968 14.3016 6.00582 14.4336 6.00582C14.5656 6.00582 14.6963 5.97968 14.8182 5.92891C14.94 5.87814 15.0506 5.80375 15.1436 5.71002C15.2373 5.61706 15.3117 5.50645 15.3625 5.3846C15.4133 5.26274 15.4394 5.13203 15.4394 5.00002C15.4394 4.86801 15.4133 4.7373 15.3625 4.61544C15.3117 4.49358 15.2373 4.38298 15.1436 4.29002L11.1436 0.290018C11.0485 0.198978 10.9363 0.127613 10.8136 0.0800184C10.5701 -0.0199996 10.2971 -0.0199996 10.0536 0.0800184C9.93084 0.127613 9.8187 0.198978 9.72359 0.290018L5.72359 4.29002C5.63036 4.38326 5.55639 4.49395 5.50593 4.61577C5.45547 4.73759 5.4295 4.86816 5.4295 5.00002C5.4295 5.13188 5.45547 5.26245 5.50593 5.38427C5.55639 5.50609 5.63036 5.61678 5.72359 5.71002C5.81683 5.80326 5.92752 5.87722 6.04934 5.92768C6.17117 5.97814 6.30173 6.00411 6.43359 6.00411C6.56545 6.00411 6.69602 5.97814 6.81784 5.92768C6.93967 5.87722 7.05036 5.80326 7.14359 5.71002ZM19.4336 10C19.1684 10 18.914 10.1054 18.7265 10.2929C18.5389 10.4804 18.4336 10.7348 18.4336 11V17C18.4336 17.2652 18.3282 17.5196 18.1407 17.7071C17.9532 17.8947 17.6988 18 17.4336 18H3.43359C3.16838 18 2.91402 17.8947 2.72649 17.7071C2.53895 17.5196 2.43359 17.2652 2.43359 17V11C2.43359 10.7348 2.32824 10.4804 2.1407 10.2929C1.95316 10.1054 1.69881 10 1.43359 10C1.16838 10 0.914023 10.1054 0.726487 10.2929C0.538951 10.4804 0.433594 10.7348 0.433594 11V17C0.433594 17.7957 0.749664 18.5587 1.31227 19.1213C1.87488 19.6839 2.63794 20 3.43359 20H17.4336C18.2292 20 18.9923 19.6839 19.5549 19.1213C20.1175 18.5587 20.4336 17.7957 20.4336 17V11C20.4336 10.7348 20.3282 10.4804 20.1407 10.2929C19.9532 10.1054 19.6988 10 19.4336 10Z" fill="#757575"/>
</svg>
