<svg width="24" height="24" viewBox="0 0 24 24" fill="none" xmlns="http://www.w3.org/2000/svg">
<path d="M12.2275 13.0196C11.8451 13.0196 11.5106 12.7089 11.5106 12.3027V9.07675C11.5106 8.69441 11.8212 8.35986 12.2275 8.35986C12.6098 8.35986 12.9443 8.67051 12.9443 9.07675V12.3027C12.9443 12.7089 12.6098 13.0196 12.2275 13.0196Z" fill="#666666"/>
<path d="M12.2275 15.1943C11.8052 15.1943 11.4628 14.8519 11.4628 14.4296C11.4628 14.0073 11.8052 13.6649 12.2275 13.6649C12.6498 13.6649 12.9922 14.0073 12.9922 14.4296C12.9922 14.8519 12.6498 15.1943 12.2275 15.1943Z" fill="#666666"/>
<path d="M11.9403 4.99064C13.6608 4.91895 15.3096 5.51635 16.5522 6.71115C17.7948 7.90595 18.4878 9.50699 18.4878 11.2275C18.4878 12.6374 18.0338 13.9756 17.1496 15.0987C16.3849 16.0784 15.8592 17.0104 15.5247 17.9901L15.5008 18.0618V20.5709C15.5008 20.8815 15.2618 21.1683 14.9512 21.2161C14.8317 22.602 13.6608 23.7012 12.227 23.7012C10.7933 23.7012 9.62235 22.602 9.50287 21.1922C9.19223 21.1444 8.95327 20.8815 8.95327 20.547V18.0618L8.92937 17.9901C8.59482 17.0104 8.06911 16.0784 7.30444 15.1226C6.37249 13.9517 5.89457 12.4701 5.96626 10.9885C6.13353 7.76258 8.7382 5.13401 11.9403 4.99064ZM12.227 22.387C12.9439 22.387 13.5174 21.8613 13.6369 21.1922H10.8172C10.9366 21.8851 11.5101 22.387 12.227 22.387ZM10.2675 19.9018H14.1865V18.3246H10.2675V19.9018ZM8.35586 14.2862C9.07275 15.1943 9.59846 16.0784 9.9808 17.0104H14.4733C14.8556 16.1023 15.3813 15.1943 16.0982 14.2862C16.7912 13.402 17.1496 12.3506 17.1496 11.2275C17.1496 9.86543 16.6 8.59894 15.6203 7.6431C14.6405 6.71115 13.3501 6.20933 11.9642 6.28102C9.43119 6.4005 7.37613 8.47946 7.25665 10.9885C7.23275 12.2072 7.61509 13.3543 8.35586 14.2862Z" fill="#666666"/>
<path d="M12.2274 3.50909C11.8689 3.50909 11.5822 3.22233 11.5822 2.86389V1.64519C11.5822 1.28675 11.8689 1 12.2274 1C12.5858 1 12.8726 1.28675 12.8726 1.64519V2.86389C12.8726 3.22233 12.5858 3.50909 12.2274 3.50909Z" fill="#666666"/>
<path d="M16.9826 4.32147C16.8631 4.53653 16.6481 4.65601 16.4091 4.65601C16.2896 4.65601 16.1941 4.63212 16.0746 4.56043C15.7639 4.36926 15.6444 3.98692 15.8356 3.67627L16.433 2.62485C16.6242 2.3142 17.0065 2.19472 17.3172 2.38589C17.6278 2.57706 17.7473 2.95939 17.5561 3.27004L16.9826 4.32147Z" fill="#666666"/>
<path d="M19.1572 6.47218L20.2086 5.87478C20.5192 5.68361 20.9255 5.80309 21.0928 6.11374C21.2839 6.42439 21.1644 6.83062 20.8538 6.99789L19.8024 7.59529C19.7068 7.64309 19.5873 7.69088 19.4678 7.69088C19.2528 7.69088 19.0138 7.5714 18.8943 7.35633C18.727 7.06958 18.8465 6.66335 19.1572 6.47218Z" fill="#666666"/>
<path d="M19.9457 11.2275C19.9457 10.869 20.2325 10.5823 20.5909 10.5823H21.8096C22.1681 10.5823 22.4548 10.869 22.4548 11.2275C22.4548 11.5859 22.1681 11.8727 21.8096 11.8727H20.5909C20.2325 11.8966 19.9457 11.5859 19.9457 11.2275Z" fill="#666666"/>
<path d="M19.8024 14.8596L20.8538 15.457C21.1644 15.6482 21.2839 16.0305 21.0928 16.3412C20.9733 16.5563 20.7582 16.6757 20.5192 16.6757C20.3998 16.6757 20.3042 16.6518 20.1847 16.5802L19.1333 15.9828C18.8226 15.7916 18.7031 15.4093 18.8943 15.0986C19.0855 14.788 19.4917 14.6685 19.8024 14.8596Z" fill="#666666"/>
<path d="M3.60102 15.457L4.65245 14.8596C4.96309 14.6685 5.36933 14.788 5.5366 15.0986C5.72777 15.4093 5.60829 15.8155 5.29764 15.9828L4.24621 16.5802C4.15063 16.6279 4.03115 16.6757 3.91167 16.6757C3.6966 16.6757 3.45764 16.5563 3.33816 16.3412C3.19479 16.0305 3.29037 15.6482 3.60102 15.457Z" fill="#666666"/>
<path d="M2.6449 10.5823H3.8636C4.22204 10.5823 4.50879 10.869 4.50879 11.2275C4.50879 11.5859 4.22204 11.8727 3.8636 11.8727H2.6449C2.28646 11.8727 1.9997 11.5859 1.9997 11.2275C1.9997 10.869 2.28646 10.5823 2.6449 10.5823Z" fill="#666666"/>
<path d="M4.98699 7.69088C4.86751 7.69088 4.77193 7.66698 4.65245 7.59529L3.60102 6.99789C3.29037 6.80672 3.17089 6.42439 3.36206 6.11374C3.55323 5.80309 3.93556 5.68361 4.24621 5.87478L5.29764 6.47218C5.60829 6.66335 5.72777 7.04569 5.5366 7.35633C5.41712 7.59529 5.20205 7.69088 4.98699 7.69088Z" fill="#666666"/>
<path d="M8.38012 4.56043C8.28453 4.60822 8.16505 4.65601 8.04557 4.65601C7.83051 4.65601 7.59155 4.53653 7.47207 4.32147L6.87467 3.27004C6.6835 2.95939 6.80298 2.55316 7.11363 2.38589C7.42427 2.19472 7.83051 2.3142 7.99778 2.62485L8.59518 3.67627C8.78635 3.96303 8.69077 4.36926 8.38012 4.56043Z" fill="#666666"/>
</svg>
