<svg width="16" height="21" viewBox="0 0 16 21" fill="none" xmlns="http://www.w3.org/2000/svg">
<path d="M8 20.5002C12.1421 20.5002 15.5 19.9676 15.5 19.3106C15.5 18.6537 12.1421 18.1211 8 18.1211C3.85786 18.1211 0.5 18.6537 0.5 19.3106C0.5 19.9676 3.85786 20.5002 8 20.5002Z" fill="#BCBEC0"/>
<path d="M15.1762 15.5851C15.1758 15.6003 15.1755 15.6153 15.175 15.6303C15.1746 15.6397 15.1745 15.649 15.1739 15.6584C15.1734 15.6755 15.1727 15.6925 15.1719 15.7094C15.1708 15.733 15.1696 15.7564 15.1683 15.7798C15.1674 15.7955 15.1664 15.8112 15.1653 15.8267C15.1643 15.8424 15.1633 15.8582 15.1621 15.8739C15.1597 15.9053 15.1571 15.9363 15.1543 15.9673C15.1514 15.9984 15.1485 16.029 15.1452 16.0594C15.1404 16.1051 15.1349 16.1504 15.1289 16.1951C15.1258 16.2174 15.1227 16.2396 15.1196 16.2619C15.1163 16.284 15.1131 16.3061 15.1096 16.3278C15.1074 16.3423 15.105 16.3568 15.1026 16.3713C15.0979 16.3991 15.0931 16.4266 15.0881 16.4539C15.0833 16.4802 15.0783 16.5064 15.0731 16.5323C15.0721 16.5384 15.0709 16.5445 15.0695 16.5504C15.0645 16.5755 15.0592 16.6005 15.0539 16.6252C15.0534 16.6278 15.0528 16.6301 15.0523 16.6325C15.0467 16.6576 15.0411 16.6826 15.0353 16.7072C15.035 16.7087 15.0346 16.7101 15.0343 16.7114C15.0298 16.7303 15.0253 16.749 15.0207 16.7675C15.0157 16.788 15.0105 16.8084 15.0052 16.8286C15.0052 16.8289 15.0052 16.8291 15.0049 16.8294C15.0016 16.8421 14.9983 16.8547 14.9949 16.8674C14.9923 16.8766 14.9899 16.8857 14.9873 16.8948C14.9849 16.9041 14.9823 16.9134 14.9796 16.9225C14.9744 16.9409 14.9691 16.9591 14.9636 16.9773C14.9584 16.9945 14.9532 17.0115 14.9479 17.0286C14.9459 17.0353 14.9438 17.0419 14.9416 17.0485C14.9376 17.0609 14.9335 17.0736 14.9293 17.0861C14.9216 17.11 14.9133 17.1339 14.9049 17.1577C14.8882 17.2053 14.8707 17.2523 14.8524 17.299C14.8444 17.3196 14.8363 17.34 14.8277 17.3602C14.8194 17.3806 14.811 17.4008 14.802 17.4209C14.7947 17.4381 14.7871 17.4553 14.7795 17.4723C14.7726 17.4878 14.7656 17.5032 14.7585 17.5185C14.7553 17.5258 14.752 17.533 14.7486 17.5401C14.7367 17.5652 14.7246 17.5902 14.7124 17.615C14.7104 17.6194 14.7083 17.6234 14.7062 17.6276C14.7 17.6399 14.6937 17.6524 14.6873 17.6647C14.684 17.6715 14.6806 17.678 14.6772 17.6846C14.6706 17.6974 14.6639 17.7101 14.6572 17.7227C14.6481 17.7399 14.639 17.7568 14.6297 17.7736C14.6103 17.8091 14.5903 17.8441 14.5698 17.8789C14.5623 17.8918 14.5545 17.9048 14.5466 17.9178C14.523 17.9566 14.499 17.995 14.4744 18.033C14.4553 18.0625 14.4357 18.0916 14.4157 18.1206C14.3558 18.2076 14.2929 18.2921 14.2268 18.3741C14.2015 18.4054 14.1759 18.4363 14.1499 18.4666C14.124 18.4971 14.0975 18.5273 14.0705 18.557C14.0373 18.5936 14.0036 18.6295 13.9692 18.6649C13.952 18.6826 13.9346 18.7002 13.917 18.7175C13.9069 18.7276 13.8969 18.7376 13.8868 18.7472C13.8775 18.7561 13.8684 18.7651 13.8589 18.774C13.8493 18.7834 13.8393 18.7927 13.8295 18.8018C13.8197 18.8111 13.8097 18.8202 13.7999 18.8293C13.7899 18.8386 13.7799 18.8477 13.7698 18.8566C13.7615 18.8642 13.7531 18.8718 13.7447 18.8792C13.7328 18.8897 13.7209 18.9001 13.7091 18.9102C13.6989 18.9192 13.6886 18.9279 13.6783 18.9367C13.668 18.9456 13.6576 18.9542 13.6473 18.9628C13.6391 18.9696 13.631 18.9763 13.6227 18.9831C13.6179 18.9871 13.6131 18.991 13.6083 18.9949C13.6004 19.0013 13.5924 19.0077 13.5845 19.0141C13.5713 19.0247 13.558 19.0352 13.5448 19.0455C13.5316 19.0557 13.5185 19.066 13.5051 19.0762C13.4949 19.0841 13.4848 19.0917 13.4744 19.0992C13.4571 19.1124 13.4397 19.1252 13.4221 19.1377C13.4132 19.1443 13.4041 19.1508 13.3951 19.1573C13.3903 19.1606 13.3855 19.1642 13.3805 19.1675C13.3616 19.181 13.3425 19.1942 13.3234 19.2072C13.3234 19.2073 13.3231 19.2075 13.3229 19.2077C13.3045 19.2201 13.2863 19.2325 13.2677 19.2446C13.2531 19.2544 13.2381 19.264 13.2233 19.2734C13.1646 19.311 13.105 19.3471 13.0444 19.3818C13.0353 19.3872 13.026 19.3925 13.0167 19.3977C12.9969 19.4088 12.9771 19.4198 12.957 19.4307C12.9412 19.4393 12.9252 19.4478 12.909 19.4562C12.9025 19.4597 12.896 19.4631 12.8892 19.4665C12.8708 19.4763 12.8523 19.4857 12.8335 19.495C12.8079 19.5078 12.7823 19.5203 12.7565 19.5326C12.7393 19.5408 12.7221 19.5489 12.7047 19.5567C12.677 19.5695 12.6489 19.582 12.6209 19.5941C12.6035 19.6017 12.586 19.6091 12.5684 19.6164C12.5633 19.6186 12.5583 19.6208 12.5531 19.6228C12.5328 19.6312 12.5124 19.6395 12.4919 19.6476C12.4912 19.6479 12.4905 19.6482 12.4897 19.6484C12.467 19.6575 12.4439 19.6663 12.4209 19.6749C12.4035 19.6813 12.3861 19.6877 12.3686 19.6939C12.3589 19.6975 12.3493 19.7008 12.3397 19.7042C12.3235 19.71 12.3073 19.7157 12.291 19.7209C12.2819 19.7241 12.2726 19.7271 12.2633 19.7302C12.2292 19.7417 12.195 19.7524 12.1604 19.7627C12.1443 19.7676 12.1279 19.7725 12.1116 19.7772C12.0939 19.7825 12.076 19.7875 12.0581 19.7924C12.0569 19.7927 12.0557 19.7931 12.0545 19.7934C12.0364 19.7985 12.0182 19.8032 11.9999 19.8079C11.9922 19.8099 11.9846 19.812 11.9771 19.8138C11.9635 19.8174 11.9499 19.8207 11.9363 19.8239C11.9225 19.8273 11.9089 19.8305 11.8953 19.8337C11.8794 19.8376 11.8632 19.8413 11.847 19.8447C11.8358 19.8472 11.8245 19.8497 11.8131 19.8521C11.7994 19.8551 11.7856 19.858 11.7717 19.8607C11.761 19.8629 11.7505 19.8651 11.7398 19.8671C11.7228 19.8705 11.7058 19.8737 11.6886 19.8767C11.6824 19.8779 11.676 19.8791 11.6697 19.8801C11.6482 19.884 11.6265 19.8877 11.6048 19.8912C11.5929 19.8932 11.5809 19.8951 11.569 19.8968C11.5572 19.8986 11.5453 19.9005 11.5334 19.9022C11.5217 19.9039 11.5099 19.9054 11.4982 19.9069C11.4865 19.9086 11.4748 19.9099 11.4631 19.9114C11.4538 19.9126 11.4445 19.9138 11.4352 19.9148C11.4168 19.9168 11.3984 19.9187 11.3802 19.9204C11.3736 19.9211 11.3669 19.9217 11.3604 19.9222C11.3511 19.9231 11.342 19.9237 11.3327 19.9244C11.2878 19.9278 11.2441 19.93 11.2014 19.9307C11.191 19.9308 11.1805 19.931 11.1701 19.931C11.1584 19.931 11.1471 19.931 11.1357 19.9307C11.1292 19.9305 11.1228 19.9303 11.1165 19.93C11.1056 19.93 11.095 19.9293 11.0845 19.9288C11.0723 19.9283 11.06 19.9275 11.048 19.9264C11.0415 19.9259 11.0349 19.9254 11.0286 19.9246C11.0222 19.9241 11.0158 19.9234 11.0095 19.9227C10.9845 19.92 10.9596 19.9175 10.9348 19.9151C10.9099 19.9126 10.8851 19.9103 10.8603 19.9081C10.768 19.8996 10.6763 19.8927 10.5855 19.887C10.5696 19.886 10.5538 19.885 10.5382 19.8841C10.5191 19.8829 10.5 19.8819 10.4809 19.8809C10.4618 19.8799 10.4427 19.8789 10.4238 19.8781C10.4073 19.8772 10.3909 19.8764 10.3746 19.8757C10.2402 19.8698 10.1092 19.8664 9.98324 19.8649C9.97103 19.8647 9.95898 19.8646 9.94712 19.8644C9.93421 19.8644 9.92131 19.8644 9.90858 19.8644C9.86661 19.8641 9.82533 19.8641 9.78456 19.8642C9.77028 19.8642 9.75618 19.8642 9.74225 19.8644C9.72831 19.8644 9.71438 19.8644 9.70062 19.8647C9.68909 19.8647 9.67774 19.8647 9.66656 19.8651C9.63852 19.8654 9.61065 19.8657 9.58331 19.8663C9.57212 19.8664 9.56112 19.8668 9.55011 19.8669C9.5391 19.8671 9.52826 19.8674 9.51725 19.8676C9.50641 19.8679 9.49575 19.8681 9.48491 19.8684C9.44225 19.8695 9.40063 19.8708 9.36037 19.8722C9.34025 19.8728 9.32047 19.8735 9.30103 19.8742C9.24289 19.8765 9.18784 19.8789 9.13641 19.8816C9.12231 19.8823 9.10855 19.8829 9.09496 19.8838C9.03836 19.8868 8.98659 19.8899 8.94032 19.8929C8.93533 19.8932 8.93051 19.8936 8.92552 19.8939C8.92071 19.8939 8.91606 19.8944 8.91142 19.8947C8.89215 19.8961 8.87289 19.8976 8.85362 19.8995C8.83986 19.9007 8.82627 19.902 8.81251 19.9033C8.79617 19.9049 8.77965 19.9067 8.76331 19.9086C8.68126 19.9182 8.59973 19.9308 8.51871 19.947C7.62269 20.1252 6.83021 20.1775 6.17536 20.1692C6.15712 20.1691 6.13923 20.1687 6.12134 20.1684C6.06097 20.1674 6.00179 20.1659 5.94382 20.1637C5.92456 20.163 5.90547 20.1623 5.88637 20.1615C5.85317 20.1601 5.82015 20.1586 5.78764 20.1569C5.75512 20.1554 5.72313 20.1536 5.69148 20.1515C5.67583 20.1507 5.66 20.1497 5.64452 20.1487C5.62887 20.1475 5.61339 20.1465 5.59808 20.1455C5.40938 20.1322 5.23719 20.1143 5.08272 20.0946C5.05399 20.0908 5.02596 20.0871 4.99861 20.0833C4.97298 20.0797 4.94786 20.076 4.92326 20.0723C4.89505 20.0682 4.8677 20.064 4.84121 20.0598C4.81627 20.0559 4.79202 20.0519 4.76845 20.0478H4.76828C4.73284 20.0419 4.69896 20.0359 4.66645 20.0298C4.65561 20.0278 4.64494 20.0258 4.63445 20.0237C4.61329 20.0199 4.593 20.0158 4.57339 20.0119H4.57321C4.56771 20.0109 4.56221 20.0097 4.5567 20.0087C4.54586 20.0065 4.5352 20.0043 4.52488 20.0022C4.51955 20.0011 4.51456 20 4.5094 19.999C4.50252 19.9974 4.49581 19.9961 4.48927 19.9947C4.47173 19.991 4.4547 19.9873 4.43853 19.9836C4.43027 19.9818 4.42236 19.9801 4.41462 19.9782C4.40688 19.9765 4.39914 19.9747 4.39174 19.973C4.38434 19.9713 4.37712 19.9696 4.37007 19.9679C4.36473 19.9667 4.35957 19.9654 4.35441 19.9642C4.3391 19.9605 4.32465 19.957 4.31106 19.9536C4.30504 19.9521 4.2992 19.9506 4.29352 19.9492C4.28784 19.9477 4.28251 19.9463 4.27718 19.945C4.27184 19.9436 4.26668 19.9423 4.26187 19.9409C4.25447 19.9391 4.24742 19.9371 4.24088 19.9354C4.22454 19.931 4.21061 19.927 4.19943 19.9239C4.19719 19.9232 4.19513 19.9226 4.19306 19.9221C4.19048 19.9212 4.1879 19.9205 4.18567 19.9199C4.18223 19.9189 4.17913 19.9178 4.17655 19.9172C4.17397 19.9163 4.17173 19.9157 4.17001 19.9151C4.1664 19.9141 4.16468 19.9136 4.16468 19.9136C4.16468 19.9136 4.16141 19.9128 4.15488 19.9108C4.15126 19.9098 4.14645 19.9082 4.14077 19.9064C4.14008 19.906 4.13957 19.9059 4.13888 19.9057C4.13561 19.9047 4.13183 19.9035 4.12787 19.9022C4.12374 19.9008 4.11944 19.8995 4.1148 19.898C4.11136 19.8968 4.10774 19.8954 4.10396 19.8942C4.09759 19.892 4.09071 19.8897 4.08349 19.8872C4.07472 19.8841 4.06543 19.8808 4.05562 19.877C4.01898 19.8636 3.97409 19.8462 3.92197 19.8239C3.90786 19.8179 3.89307 19.8115 3.87793 19.8049C3.85763 19.7958 3.8363 19.7862 3.81429 19.7757C3.80328 19.7705 3.79192 19.7653 3.78057 19.7597C3.7749 19.757 3.76905 19.7543 3.7632 19.7514C3.75167 19.7457 3.7398 19.7398 3.72776 19.7339C3.7097 19.7248 3.6913 19.7153 3.67237 19.7056C3.62215 19.6794 3.56899 19.6503 3.51361 19.6181C3.49967 19.61 3.48574 19.6017 3.47146 19.5933C3.46441 19.5891 3.45718 19.5848 3.45013 19.5805C3.43585 19.5719 3.42141 19.5629 3.40696 19.554C3.37771 19.5359 3.34796 19.5169 3.31785 19.4972C2.84206 19.1846 2.25291 18.6614 1.78916 17.8161C1.38837 17.0859 1.08115 16.1149 1.02215 14.8309C1.00529 14.4652 1.03316 14.0931 1.09852 13.7176C1.65327 10.5243 4.90073 7.10251 6.21045 5.83272C6.25827 5.78635 6.30351 5.74285 6.34582 5.70238C6.51852 5.53714 6.64478 5.42148 6.70912 5.36365C6.74042 5.33481 6.75711 5.32031 6.75711 5.32031H9.54013C9.54873 5.32824 9.55699 5.33667 9.56507 5.34476V5.34493C9.57126 5.351 9.57746 5.35741 9.58365 5.36365C9.69976 5.47796 9.8126 5.59076 9.92303 5.70238C9.96621 5.74605 10.009 5.78955 10.0514 5.83272C10.0773 5.85919 10.1031 5.88549 10.1286 5.91179C10.1761 5.96069 10.2232 6.00925 10.27 6.05764C10.2734 6.06118 10.2769 6.06472 10.2803 6.06843C10.325 6.1148 10.3694 6.161 10.4131 6.20703C10.4184 6.21243 10.4236 6.21799 10.4286 6.22338C10.4706 6.26739 10.512 6.31123 10.5531 6.35473C10.6185 6.42403 10.6828 6.49282 10.746 6.56111C10.7738 6.59129 10.8015 6.62113 10.829 6.65098C10.8566 6.68099 10.8839 6.71067 10.9109 6.74034C10.9725 6.80762 11.0329 6.87422 11.092 6.94031C11.1096 6.9597 11.1268 6.97909 11.1442 6.99848C11.1996 7.06036 11.2541 7.12174 11.3074 7.1826C11.3274 7.20537 11.3473 7.2283 11.3673 7.25089C11.4068 7.29625 11.446 7.34127 11.4848 7.38612C11.5042 7.40854 11.5233 7.43097 11.5424 7.45322C11.5615 7.47548 11.5806 7.49757 11.5993 7.51965C11.6999 7.63751 11.7971 7.75352 11.8909 7.86733C11.9143 7.89582 11.9377 7.92415 11.9607 7.95231C11.9638 7.95618 11.9669 7.95989 11.97 7.96377C11.9898 7.98805 12.0096 8.01233 12.0292 8.03644C12.0405 8.05044 12.0519 8.06443 12.0631 8.07826C12.0854 8.10608 12.1076 8.1339 12.1298 8.16138C12.1468 8.18263 12.1637 8.20387 12.1804 8.22495C12.194 8.24215 12.2076 8.25934 12.221 8.27637C12.2232 8.27907 12.2254 8.28177 12.2275 8.28464C12.249 8.31178 12.2702 8.33876 12.2913 8.36574C12.2946 8.36978 12.2979 8.374 12.301 8.37821C12.3273 8.41177 12.3533 8.44532 12.3791 8.47871C12.4307 8.54548 12.4809 8.61123 12.5297 8.67615C12.5414 8.69166 12.5531 8.70717 12.5648 8.72251C12.6018 8.77209 12.6383 8.82098 12.6741 8.86954C12.6956 8.89888 12.7171 8.92822 12.7382 8.95722C12.8309 9.08452 12.919 9.20828 13.0023 9.32867C13.0126 9.3435 13.0229 9.35817 13.0329 9.37301C13.0534 9.40252 13.0733 9.43169 13.0929 9.46069C13.1029 9.47519 13.1127 9.48952 13.1223 9.50402C13.2434 9.68308 13.3542 9.85422 13.4555 10.0173C13.4684 10.0378 13.4812 10.0584 13.4937 10.0788C13.7122 10.4341 13.8857 10.7502 14.0233 11.0264C14.0314 11.0424 14.0392 11.0583 14.0469 11.0739C14.131 11.2451 14.2012 11.4004 14.2595 11.5396C14.2642 11.5504 14.2686 11.5611 14.2729 11.5717C14.3318 11.7138 14.378 11.8388 14.4145 11.946C14.4195 11.9608 14.4243 11.9752 14.429 11.9893C14.4346 12.0065 14.44 12.0232 14.4451 12.0394C14.4518 12.0606 14.4582 12.081 14.464 12.1008C14.464 12.1011 14.464 12.1013 14.464 12.1014C14.467 12.1112 14.4699 12.121 14.4726 12.1304C14.4764 12.1434 14.48 12.1561 14.4835 12.1682C14.4855 12.1756 14.4876 12.1831 14.4895 12.1903C14.4902 12.1927 14.4909 12.1949 14.4914 12.1972C14.4935 12.2045 14.4953 12.2116 14.4971 12.2183C14.4984 12.2239 14.5 12.2294 14.5014 12.2348C14.5027 12.2402 14.5041 12.2454 14.5055 12.2507C14.5058 12.2517 14.506 12.2525 14.5062 12.2534C14.5079 12.2601 14.5096 12.2667 14.511 12.2731C14.5148 12.2881 14.5181 12.3021 14.521 12.3149C14.5237 12.3269 14.5261 12.338 14.5284 12.3481C14.532 12.366 14.5349 12.381 14.5373 12.3931C14.5382 12.3977 14.5389 12.4019 14.5396 12.4058C14.5404 12.4112 14.5411 12.4159 14.5418 12.4198C14.5421 12.4225 14.5425 12.4248 14.5428 12.4267C14.5428 12.428 14.5432 12.4292 14.5433 12.4301C14.5437 12.4324 14.5439 12.4339 14.5439 12.4345H14.544C14.5471 12.4425 14.5502 12.4505 14.5533 12.4582C14.5643 12.4864 14.5753 12.5145 14.586 12.5425C14.5869 12.5449 14.5879 12.5474 14.5888 12.5498C14.5961 12.569 14.6034 12.5881 14.6104 12.6069C14.6177 12.626 14.6247 12.645 14.6318 12.6639C14.6498 12.7125 14.6674 12.7607 14.6844 12.8086C14.703 12.8612 14.721 12.9135 14.7384 12.9652C14.7501 13 14.7615 13.0344 14.7726 13.0686C14.7781 13.0858 14.7836 13.103 14.789 13.12C14.7945 13.137 14.7998 13.1541 14.8051 13.1711C14.8316 13.2561 14.8566 13.3401 14.8801 13.4232C14.8894 13.4562 14.8986 13.4893 14.9075 13.5222C14.9164 13.5552 14.925 13.5879 14.9335 13.6205C14.967 13.751 14.9968 13.8789 15.0229 14.0045C15.0295 14.0359 15.0358 14.0671 15.042 14.0981C15.0425 14.1013 15.0432 14.1045 15.0439 14.1077C15.0492 14.1357 15.0544 14.1634 15.0596 14.191C15.0769 14.2853 15.0921 14.3782 15.1053 14.4696C15.1088 14.4927 15.112 14.5158 15.1151 14.5387C15.1199 14.5733 15.1242 14.6075 15.1284 14.6416C15.1297 14.6534 15.1311 14.665 15.1325 14.6766C15.1342 14.6913 15.1359 14.706 15.1375 14.7206C15.1401 14.7434 15.1423 14.766 15.1445 14.7884C15.1462 14.8054 15.148 14.8225 15.1495 14.8395C15.1504 14.8488 15.1512 14.858 15.1521 14.8673C15.1536 14.8857 15.1552 14.9041 15.1566 14.9223C15.1602 14.9666 15.1633 15.0105 15.1659 15.054C15.1671 15.0732 15.1681 15.0922 15.1691 15.1113C15.1691 15.114 15.1695 15.1165 15.1695 15.1191C15.1707 15.1406 15.1715 15.1622 15.1724 15.1836C15.1733 15.205 15.1741 15.2263 15.1746 15.2475C15.1751 15.2627 15.1755 15.2777 15.1758 15.2927C15.1758 15.3005 15.1762 15.3082 15.1764 15.316C15.1782 15.4074 15.1779 15.4972 15.1757 15.5853L15.1762 15.5851Z" fill="#C59976"/>
<path opacity="0.1" d="M8.17657 5.83257C8.11946 6.60244 7.8506 8.51262 6.86651 13.2519C6.46572 15.1825 4.80457 18.7285 1.78916 17.816C1.38837 17.0857 1.08115 16.1147 1.02215 14.8307C1.00529 14.465 1.03316 14.0929 1.09852 13.7174C1.65327 10.5241 4.90073 7.10237 6.21045 5.83257C6.25827 5.7862 6.30351 5.7427 6.34582 5.70223C6.51853 5.53699 6.64478 5.42133 6.70912 5.3635C6.74042 5.33466 6.75711 5.32016 6.75711 5.32016H7.44362L8.15817 5.31274C8.15817 5.31274 8.16143 5.31291 8.16574 5.32016C8.17984 5.34326 8.20599 5.43886 8.17657 5.83257Z" fill="white"/>
<path d="M12.4691 3.5828C12.4619 3.59545 12.4538 3.6086 12.446 3.62125C12.3141 3.83167 12.0999 3.98072 11.8552 4.03957C11.1045 4.2193 10.4845 4.58367 10.0757 4.87789C10.0039 4.92932 9.93875 4.97889 9.88044 5.02475C9.8161 5.07567 9.76003 5.1217 9.71289 5.16217C9.60057 5.25912 9.54019 5.32032 9.54019 5.32032H6.74805C6.74805 5.32032 6.7269 5.19505 6.59341 5.02475C6.56933 4.99407 6.54146 4.96169 6.5093 4.92848C6.36033 4.77352 6.11951 4.59665 5.73196 4.44592C5.65318 4.41523 5.56838 4.38555 5.47704 4.35756C5.26735 4.29316 5.08485 4.16147 4.96289 3.98224C4.78589 3.72157 4.67064 3.33158 5.106 2.93399C5.12854 2.91326 5.15262 2.89252 5.17808 2.87228C5.2443 2.81867 5.31775 2.77398 5.39585 2.74009C5.42423 2.72745 5.45537 2.71514 5.48856 2.70384C5.67314 2.64264 5.83431 2.53119 5.95369 2.38332C5.98414 2.34588 6.01166 2.30626 6.03626 2.26445C6.04434 2.25079 6.0526 2.23764 6.06172 2.22347C6.22857 1.96685 6.57742 1.66976 7.30246 1.49441C7.31381 1.49171 7.32482 1.48918 7.33634 1.48648C7.33686 1.48648 7.33703 1.48648 7.33703 1.48648C7.34529 1.48463 7.35354 1.4826 7.36197 1.48075C7.37642 1.47738 7.39173 1.47417 7.40652 1.4708C7.545 1.44129 7.67487 1.38296 7.78719 1.29983C7.78719 1.29983 7.78754 1.29966 7.78805 1.29933C7.81833 1.2769 7.84757 1.25279 7.87509 1.22665C8.2936 0.8343 9.33567 0.00625917 10.4008 0.319536C11.0742 0.517652 11.3295 0.885895 11.4143 1.21114C11.4294 1.26898 11.4391 1.32529 11.4447 1.37908C11.476 1.67178 11.6474 1.93195 11.9013 2.08808C11.9529 2.11978 12.0053 2.15451 12.0574 2.19245C12.1775 2.27962 12.2948 2.38298 12.3903 2.50219H12.3908C12.6122 2.77837 12.7173 3.13919 12.4691 3.58297V3.5828Z" fill="#C59976"/>
<path opacity="0.16" d="M15.1762 15.5853C15.1759 15.6005 15.1755 15.6155 15.175 15.6305C15.1747 15.6399 15.1745 15.6492 15.174 15.6586C15.1734 15.6757 15.1728 15.6927 15.1719 15.7095C15.1709 15.7331 15.1697 15.7566 15.1683 15.78C15.1674 15.7957 15.1664 15.8114 15.1654 15.8269C15.1643 15.8426 15.1633 15.8584 15.1621 15.8741C15.1597 15.9055 15.1571 15.9365 15.1544 15.9675C15.1516 15.9985 15.1485 16.0292 15.1452 16.0596C15.1404 16.1053 15.1349 16.1506 15.1289 16.1953C15.1258 16.2176 15.1227 16.2398 15.1196 16.2621C15.1163 16.2842 15.1131 16.3063 15.1096 16.328C15.1074 16.3425 15.105 16.357 15.1026 16.3715C15.0979 16.3993 15.0931 16.4268 15.0881 16.4541C15.0833 16.4804 15.0783 16.5066 15.0732 16.5325C15.0721 16.5386 15.0709 16.5447 15.0696 16.5506C15.0646 16.5757 15.0592 16.6006 15.0539 16.6254C15.0534 16.628 15.0529 16.6303 15.0524 16.6327C15.0467 16.6578 15.0412 16.6828 15.0353 16.7074C15.035 16.7089 15.0346 16.7102 15.0343 16.7116C15.0298 16.7305 15.0253 16.7492 15.0207 16.7677C15.0157 16.7881 15.0106 16.8085 15.0052 16.8288C15.0052 16.8291 15.0052 16.8293 15.0049 16.8296C15.0018 16.8423 14.9985 16.8549 14.9951 16.8674C14.9927 16.8767 14.9901 16.8859 14.9873 16.895C14.9849 16.9043 14.9823 16.9136 14.9796 16.9227C14.9744 16.9411 14.9691 16.9593 14.9636 16.9775C14.9584 16.9947 14.9533 17.0117 14.9479 17.0287C14.9459 17.0355 14.9438 17.0421 14.9416 17.0486C14.9376 17.0611 14.9335 17.0738 14.9294 17.0862C14.9216 17.1102 14.9134 17.1341 14.9049 17.1579C14.8884 17.2054 14.8709 17.2525 14.8525 17.2992C14.8444 17.3198 14.8363 17.3402 14.8277 17.3604C14.8194 17.3808 14.811 17.401 14.8021 17.4211C14.7947 17.4383 14.7871 17.4555 14.7795 17.4725C14.7727 17.488 14.7656 17.5034 14.7585 17.5187C14.7553 17.526 14.752 17.5332 14.7486 17.5403C14.7367 17.5654 14.7247 17.5904 14.7125 17.6152C14.7104 17.6196 14.7083 17.6236 14.7063 17.6278C14.7001 17.6401 14.6937 17.6526 14.6873 17.6649C14.6841 17.6716 14.6806 17.6782 14.6772 17.6848C14.6707 17.6976 14.6639 17.7103 14.6572 17.7229C14.6481 17.7401 14.639 17.757 14.6297 17.7738C14.6103 17.8092 14.5903 17.8443 14.5699 17.879C14.5623 17.892 14.5545 17.905 14.5466 17.918C14.5232 17.9568 14.4992 17.9952 14.4744 18.0331C14.4553 18.0627 14.4357 18.0918 14.4157 18.1208C14.356 18.2078 14.2931 18.2923 14.2269 18.3742C14.2017 18.4056 14.1761 18.4365 14.15 18.4668C14.124 18.4973 14.0975 18.5275 14.0705 18.5572C14.0375 18.5938 14.0036 18.6297 13.9692 18.6651C13.952 18.6828 13.9346 18.7003 13.9171 18.7177C13.9069 18.7278 13.8969 18.7378 13.8868 18.7474C13.8775 18.7563 13.8684 18.7653 13.8589 18.7742C13.8493 18.7836 13.8393 18.7929 13.8295 18.802C13.8197 18.8113 13.8097 18.8204 13.7999 18.8295C13.7899 18.8388 13.78 18.8479 13.7698 18.8568C13.7616 18.8644 13.7531 18.872 13.7447 18.8794C13.7328 18.8899 13.721 18.9003 13.7091 18.9104C13.6989 18.9194 13.6886 18.9281 13.6783 18.9369C13.668 18.9458 13.6577 18.9544 13.6473 18.963C13.6391 18.9698 13.631 18.9765 13.6227 18.9833C13.6179 18.9873 13.6131 18.9912 13.6083 18.9951C13.6004 19.0015 13.5925 19.0079 13.5846 19.0143C13.5713 19.0249 13.5581 19.0354 13.5448 19.0456C13.5316 19.0559 13.5185 19.0662 13.5051 19.0763C13.4949 19.0843 13.4848 19.0918 13.4745 19.0994C13.4571 19.1126 13.4397 19.1254 13.4222 19.1379C13.4132 19.1445 13.4041 19.151 13.3952 19.1574C13.3903 19.1608 13.3855 19.1643 13.3805 19.1677C13.3616 19.1812 13.3425 19.1944 13.3234 19.2073C13.3234 19.2075 13.3231 19.2077 13.3229 19.2079C13.3045 19.2203 13.2863 19.2326 13.2677 19.2448C13.2531 19.2546 13.2381 19.2642 13.2233 19.2736C13.1647 19.3112 13.105 19.3473 13.0444 19.382C13.0353 19.3874 13.026 19.3926 13.0167 19.3979C12.997 19.409 12.9772 19.42 12.957 19.4309C12.9412 19.4395 12.9252 19.448 12.9091 19.4564C12.9025 19.4599 12.896 19.4633 12.8893 19.4667C12.8709 19.4764 12.8523 19.4859 12.8335 19.4952C12.8079 19.508 12.7823 19.5205 12.7565 19.5328C12.7393 19.541 12.7221 19.5491 12.7047 19.5569C12.677 19.5697 12.649 19.5822 12.6209 19.5943C12.6036 19.6019 12.586 19.6093 12.5685 19.6166C12.5633 19.6188 12.5583 19.6209 12.5532 19.623C12.5329 19.6314 12.5124 19.6397 12.4919 19.6478C12.4912 19.6481 12.4905 19.6484 12.4897 19.6486C12.467 19.6577 12.4439 19.6665 12.4209 19.6751C12.4035 19.6815 12.3861 19.6879 12.3686 19.6941C12.3589 19.6977 12.3493 19.701 12.3397 19.7044C12.3235 19.7101 12.3073 19.7159 12.291 19.7211C12.2819 19.7243 12.2726 19.7273 12.2633 19.7304C12.2292 19.7418 12.195 19.7526 12.1604 19.7629C12.1443 19.7678 12.1279 19.7727 12.1116 19.7774C12.0939 19.7826 12.076 19.7877 12.0581 19.7926C12.0569 19.7929 12.0557 19.7933 12.0545 19.7936C12.0364 19.7987 12.0182 19.8034 12 19.8081C11.9922 19.8101 11.9846 19.8121 11.9771 19.814C11.9635 19.8175 11.9499 19.8209 11.9363 19.8241C11.9225 19.8275 11.909 19.8307 11.8954 19.8339C11.8794 19.8378 11.8632 19.8415 11.847 19.8449C11.8359 19.8474 11.8245 19.8499 11.8131 19.8523C11.7994 19.8553 11.7856 19.8582 11.7717 19.8609C11.761 19.8631 11.7505 19.8653 11.7399 19.8673C11.7228 19.8707 11.7058 19.8739 11.6886 19.8769C11.6824 19.8781 11.6761 19.8793 11.6697 19.8803C11.6482 19.8841 11.6265 19.8879 11.6048 19.8914C11.593 19.8934 11.5809 19.8953 11.5691 19.897C11.5572 19.8988 11.5453 19.9007 11.5335 19.9024C11.5218 19.904 11.5099 19.9056 11.4982 19.9071C11.4865 19.9088 11.4748 19.9101 11.4631 19.9116C11.4538 19.9128 11.4445 19.914 11.4352 19.915C11.4168 19.917 11.3984 19.9189 11.3802 19.9206C11.3737 19.9212 11.3669 19.9219 11.3604 19.9224C11.3511 19.9233 11.342 19.9239 11.3327 19.9246C11.2878 19.928 11.2441 19.9302 11.2015 19.9308C11.191 19.931 11.1805 19.9312 11.1702 19.9312C11.1585 19.9312 11.1471 19.9312 11.1358 19.9308C11.1292 19.9307 11.1229 19.9305 11.1165 19.9302C11.1057 19.9302 11.095 19.9295 11.0845 19.929C11.0723 19.9285 11.0601 19.9276 11.048 19.9266C11.0415 19.9261 11.035 19.9256 11.0286 19.9248C11.0222 19.9244 11.0159 19.9238 11.0095 19.9231C10.9846 19.9204 10.9596 19.9179 10.9348 19.9153C10.9099 19.9128 10.8851 19.9104 10.8604 19.9083C10.768 19.8998 10.6763 19.8929 10.5855 19.8872C10.5697 19.8862 10.5538 19.8852 10.5382 19.8843C10.5191 19.8831 10.5 19.8821 10.4809 19.8811C10.4618 19.8801 10.4427 19.8791 10.4238 19.8782C10.4073 19.8774 10.3909 19.8766 10.3746 19.8759C10.2402 19.87 10.1092 19.8666 9.98326 19.8651C9.97104 19.8649 9.959 19.8648 9.94713 19.8646C9.93423 19.8646 9.92133 19.8646 9.9086 19.8646C9.86663 19.8642 9.82535 19.8642 9.78458 19.8644C9.7703 19.8644 9.7562 19.8644 9.74227 19.8646C9.72833 19.8646 9.7144 19.8646 9.70064 19.8649C9.68911 19.8649 9.67776 19.8649 9.66658 19.8653C9.63854 19.8656 9.61067 19.8659 9.58332 19.8664C9.57214 19.8666 9.56113 19.8669 9.55013 19.8671C9.53912 19.8673 9.52828 19.8676 9.51727 19.8678C9.50643 19.8681 9.49577 19.8683 9.48493 19.8686C9.44227 19.8696 9.40064 19.871 9.36039 19.8723C9.34027 19.873 9.32049 19.8737 9.30105 19.8744C9.24291 19.8767 9.18786 19.8791 9.13643 19.8818C9.12233 19.8825 9.10856 19.8831 9.09498 19.884C9.03838 19.887 8.98661 19.89 8.94033 19.8931C8.93535 19.8934 8.93053 19.8938 8.92554 19.8941C8.92072 19.8944 8.91608 19.8948 8.91126 19.8951C8.90576 19.8954 8.90026 19.8959 8.89475 19.8965C8.88099 19.8975 8.8674 19.8985 8.85364 19.8997C8.83988 19.9008 8.82629 19.9022 8.81253 19.9035C8.79619 19.9051 8.77967 19.9069 8.76333 19.9088C8.68128 19.9184 8.59975 19.931 8.51873 19.9472C7.6227 20.1254 6.83023 20.1777 6.17537 20.1694C6.15714 20.1693 6.13925 20.1689 6.12136 20.1686C6.06098 20.1676 6.00181 20.1661 5.94384 20.1639C5.92458 20.1632 5.90548 20.1625 5.88639 20.1617C5.85319 20.1603 5.82016 20.1588 5.78765 20.1571C5.75514 20.1556 5.72315 20.1538 5.6915 20.1517C5.67584 20.1509 5.66002 20.1499 5.64454 20.1489C5.62888 20.1477 5.6134 20.1467 5.59809 20.1457C5.40939 20.1323 5.23721 20.1145 5.08274 20.0947C5.05418 20.091 5.02615 20.0872 4.99862 20.0834C4.97299 20.0799 4.94788 20.0762 4.92328 20.0725C4.89507 20.0684 4.86772 20.0642 4.84123 20.06C4.81629 20.056 4.79203 20.0519 4.76847 20.048H4.7683C4.73286 20.042 4.69897 20.0359 4.66646 20.03C4.65563 20.028 4.64496 20.0259 4.63447 20.0239C4.61331 20.02 4.59301 20.016 4.5734 20.0121H4.57323C4.56773 20.0111 4.56222 20.0099 4.55672 20.0089C4.54588 20.0067 4.53522 20.0045 4.5249 20.0023C4.51956 20.0013 4.51458 20.0001 4.50941 19.9991C4.50253 19.9976 4.49583 19.9963 4.48929 19.9949C4.47174 19.991 4.45471 19.9873 4.43854 19.9838C4.43029 19.9819 4.42238 19.9803 4.41463 19.9784C4.40689 19.9767 4.39915 19.9749 4.39176 19.9732C4.38436 19.9715 4.37714 19.9698 4.37008 19.9681C4.36475 19.9669 4.35959 19.9656 4.35443 19.9644C4.33912 19.9607 4.32467 19.9572 4.31108 19.9538C4.30506 19.9523 4.29921 19.9507 4.29354 19.9494C4.28786 19.9479 4.28253 19.9465 4.2772 19.9452C4.27186 19.9438 4.2667 19.9425 4.26189 19.9411C4.25449 19.9393 4.24744 19.9373 4.2409 19.9356C4.22456 19.9312 4.21063 19.9271 4.19945 19.9241C4.19721 19.9234 4.19514 19.9228 4.19308 19.9222C4.1905 19.9214 4.18792 19.9207 4.18568 19.9201C4.18224 19.919 4.17915 19.918 4.17657 19.9174C4.17399 19.9165 4.17175 19.9158 4.17003 19.9153C4.16642 19.9142 4.1647 19.9137 4.1647 19.9137C4.1647 19.9137 4.16143 19.9128 4.15489 19.911C4.15128 19.9098 4.14646 19.9083 4.14079 19.9066C4.1401 19.9062 4.13958 19.9061 4.1389 19.9059C4.13563 19.9049 4.13184 19.9037 4.12789 19.9024C4.12376 19.901 4.11946 19.8997 4.11481 19.8981C4.11137 19.897 4.10776 19.8956 4.10398 19.8944C4.09761 19.8922 4.09073 19.8899 4.08351 19.8873C4.07473 19.8843 4.06545 19.8809 4.05564 19.8772C4.019 19.8637 3.97411 19.8464 3.92199 19.8241C3.90788 19.818 3.89309 19.8116 3.87795 19.8051C3.85765 19.796 3.83632 19.7864 3.8143 19.7759C3.8033 19.7707 3.79194 19.7654 3.78059 19.7599C3.77491 19.7572 3.76906 19.7545 3.76322 19.7516C3.75169 19.7459 3.73982 19.74 3.72778 19.7341C3.70972 19.725 3.69131 19.7155 3.67239 19.7058C3.62216 19.6796 3.56901 19.6505 3.51362 19.6182C3.49969 19.6102 3.48576 19.6019 3.47148 19.5935C3.46443 19.5892 3.4572 19.585 3.45015 19.5806C3.43587 19.572 3.42142 19.5631 3.40697 19.5542C3.37773 19.5361 3.34797 19.5171 3.31787 19.4974V19.4582C3.31787 19.4582 5.83375 19.55 7.83875 18.1965C13.3504 14.4757 10.5158 12.178 8.93844 6.77577C8.88804 6.60345 8.84848 6.43669 8.83489 5.8329C8.83231 5.71673 8.83059 5.58454 8.83007 5.43296C8.82938 5.24901 8.94532 5.43246 8.89888 5.36366C8.88718 5.34613 8.87738 5.3318 8.86964 5.3205V5.32033C8.8557 5.29993 8.84848 5.28931 8.84848 5.28931L9.21745 5.31814L9.24807 5.32033H9.2503L9.56526 5.34512C9.57146 5.35119 9.57765 5.35759 9.58384 5.36383C9.69995 5.47815 9.81279 5.59095 9.92322 5.70257C9.9664 5.74624 10.0092 5.78974 10.0515 5.8329C10.0775 5.85938 10.1033 5.88568 10.1288 5.91198C10.1763 5.96088 10.2234 6.00944 10.2702 6.05783C10.2736 6.06137 10.2771 6.06491 10.2805 6.06862C10.3252 6.11499 10.3696 6.16119 10.4133 6.20722C10.4186 6.21261 10.4238 6.21818 10.4288 6.22357C10.4709 6.26758 10.5124 6.31142 10.5533 6.35492C10.6187 6.42422 10.683 6.49301 10.7461 6.5613C10.774 6.59148 10.8017 6.62132 10.8292 6.65117C10.8567 6.68118 10.8841 6.71085 10.9111 6.74053C10.9727 6.8078 11.0331 6.8744 11.0922 6.9405C11.1098 6.95989 11.127 6.97928 11.1444 6.99867C11.1997 7.06055 11.2543 7.12192 11.3076 7.18279C11.3275 7.20555 11.3475 7.22848 11.3675 7.25108C11.4072 7.29643 11.4464 7.34145 11.4849 7.3863C11.5044 7.40873 11.5235 7.43115 11.5426 7.45341C11.5617 7.47567 11.5808 7.49775 11.5995 7.51984C11.7001 7.6377 11.7973 7.7537 11.8911 7.86751C11.9145 7.89601 11.9379 7.92434 11.9609 7.95249C11.964 7.95637 11.9671 7.96008 11.9702 7.96396C11.99 7.98824 12.0098 8.01252 12.0294 8.03663C12.0407 8.05062 12.0521 8.06462 12.0633 8.07844C12.0856 8.10627 12.1078 8.13409 12.13 8.16157C12.147 8.18281 12.1639 8.20406 12.1806 8.22514C12.1942 8.24233 12.2077 8.25953 12.2212 8.27656C12.2234 8.27926 12.2256 8.28196 12.2277 8.28482C12.2492 8.31197 12.2704 8.33895 12.2915 8.36592C12.2948 8.36997 12.2981 8.37419 12.3012 8.3784C12.3275 8.41195 12.3534 8.44551 12.3792 8.47889C12.4309 8.54566 12.4811 8.61142 12.5299 8.67633C12.5416 8.69185 12.5533 8.70736 12.565 8.7227C12.602 8.77227 12.6385 8.82117 12.6743 8.86973C12.6958 8.89907 12.7173 8.92841 12.7384 8.95741C12.8311 9.08471 12.9192 9.20847 13.0025 9.32885C13.0128 9.34369 13.0231 9.35836 13.0331 9.3732C13.0535 9.4027 13.0735 9.43187 13.0931 9.46087C13.1031 9.47538 13.1129 9.48971 13.1225 9.50421C13.2436 9.68327 13.3544 9.85441 13.4557 10.0175C13.4686 10.038 13.4813 10.0586 13.4939 10.079C13.7124 10.4343 13.8859 10.7504 14.0235 11.0266C14.0316 11.0426 14.0394 11.0584 14.0471 11.0741C14.1312 11.2453 14.2014 11.4006 14.2597 11.5398C14.2644 11.5506 14.2688 11.5612 14.2731 11.5719C14.332 11.714 14.3782 11.8389 14.4147 11.9462C14.4197 11.961 14.4245 11.9753 14.4291 11.9895C14.4348 12.0067 14.4402 12.0234 14.4453 12.0396C14.452 12.0608 14.4584 12.0812 14.4642 12.101C14.4642 12.1013 14.4642 12.1015 14.4642 12.1016C14.4672 12.1114 14.4701 12.1212 14.4728 12.1306C14.4766 12.1436 14.4802 12.1563 14.4837 12.1684C14.4857 12.1758 14.4878 12.1832 14.4897 12.1905C14.4904 12.1929 14.4911 12.195 14.4916 12.1974C14.4936 12.2047 14.4955 12.2117 14.4973 12.2185C14.4985 12.2225 14.4995 12.2266 14.5005 12.2306C14.5009 12.2321 14.5012 12.2335 14.5016 12.235C14.5029 12.2404 14.5043 12.2456 14.5057 12.2509C14.506 12.2519 14.5062 12.2527 14.5064 12.2536C14.5081 12.2603 14.5098 12.2669 14.5112 12.2733C14.515 12.2883 14.5182 12.3023 14.5212 12.3151C14.5239 12.3271 14.5263 12.3382 14.5286 12.3483C14.5322 12.3662 14.5351 12.3812 14.5375 12.3933C14.5382 12.3981 14.5389 12.4021 14.5397 12.406C14.5406 12.4114 14.5413 12.4161 14.542 12.42C14.5423 12.4227 14.5427 12.425 14.543 12.4269C14.543 12.4282 14.5434 12.4294 14.5435 12.4303C14.5439 12.4333 14.544 12.4346 14.544 12.4346H14.5442C14.5473 12.4427 14.5504 12.4507 14.5535 12.4584C14.5645 12.4866 14.5755 12.5147 14.5862 12.5427C14.5871 12.5451 14.5881 12.5476 14.5889 12.55C14.5963 12.5692 14.6036 12.5882 14.6106 12.6071C14.6178 12.6262 14.6249 12.6452 14.6319 12.6641C14.65 12.7127 14.6676 12.7609 14.6846 12.8088C14.7032 12.8614 14.7212 12.9137 14.7386 12.9654C14.7503 13.0002 14.7616 13.0346 14.7728 13.0688C14.7783 13.086 14.7838 13.1032 14.7892 13.1202C14.7947 13.1372 14.8 13.1543 14.8053 13.1713C14.8318 13.2563 14.8568 13.3402 14.8803 13.4234C14.8896 13.4564 14.8987 13.4895 14.9077 13.5223C14.9165 13.5554 14.9252 13.5881 14.9337 13.6206C14.9672 13.7511 14.997 13.8791 15.0231 14.0047C15.0296 14.0361 15.036 14.0673 15.0422 14.0983C15.0427 14.1015 15.0434 14.1047 15.0441 14.1079C15.0494 14.1359 15.0546 14.1636 15.0597 14.1912C15.0771 14.2855 15.0923 14.3784 15.1055 14.4698C15.1089 14.4929 15.1122 14.516 15.1153 14.5389C15.1201 14.5735 15.1244 14.6077 15.1286 14.6417C15.1299 14.6535 15.1313 14.6652 15.1327 14.6768C15.1344 14.6915 15.1361 14.7061 15.1377 14.7208C15.1403 14.7436 15.1425 14.7662 15.1447 14.7886C15.1464 14.8056 15.1482 14.8227 15.1497 14.8397C15.1506 14.849 15.1514 14.8582 15.1523 14.8675C15.1538 14.8859 15.1554 14.9043 15.1568 14.9225C15.1604 14.9668 15.1635 15.0107 15.1661 15.0542C15.1673 15.0734 15.1683 15.0924 15.1693 15.1115C15.1693 15.1142 15.1697 15.1167 15.1697 15.1192C15.1709 15.1408 15.1717 15.1624 15.1726 15.1838C15.1734 15.2052 15.1743 15.2265 15.1748 15.2477C15.1753 15.2629 15.1757 15.2779 15.176 15.2929C15.176 15.3007 15.1764 15.3084 15.1765 15.3162C15.1784 15.4076 15.1781 15.4974 15.1759 15.5854L15.1762 15.5853Z" fill="#414141"/>
<path d="M9.98421 5.08781V5.29975C9.98421 5.33482 9.95514 5.36315 9.91936 5.36315H6.39737C6.36159 5.36315 6.33252 5.33499 6.33252 5.29975V5.08781C6.33252 5.05291 6.36159 5.02441 6.39737 5.02441H9.91936C9.95514 5.02441 9.98421 5.05291 9.98421 5.08781Z" fill="#3F424A"/>
<path opacity="0.16" d="M10.8871 8.76482C10.8871 8.76482 9.93138 6.73189 8.83221 5.56107C8.80916 5.53662 8.81828 5.49649 8.84563 5.47693L9.02573 5.34828C9.05308 5.32873 9.08662 5.33884 9.11156 5.36144C9.98419 6.15677 11.3113 8.79972 11.3113 8.79972C11.3312 8.82653 11.3252 8.8643 11.2979 8.88386C11.2979 8.88386 10.9072 8.79163 10.8871 8.76482Z" fill="#414141"/>
<path d="M10.0606 5.42685V5.63862C10.0606 5.67369 10.0318 5.70219 9.9959 5.70219H6.30516C6.26938 5.70219 6.24048 5.67369 6.24048 5.63862V5.42685C6.24048 5.39178 6.2692 5.36328 6.30516 5.36328H9.9959C10.014 5.36328 10.03 5.37036 10.0417 5.38183C10.0534 5.39346 10.0606 5.40931 10.0606 5.42685Z" fill="#3F424A"/>
<path d="M10.8871 8.57878C10.8871 8.57878 9.93138 6.54586 8.83221 5.37503C8.80916 5.35059 8.81828 5.31046 8.84563 5.2909L9.02573 5.16225C9.05308 5.14269 9.08662 5.15281 9.11156 5.1754C9.98419 5.97073 11.3113 8.61369 11.3113 8.61369C11.3312 8.6405 11.3252 8.67826 11.2979 8.69782C11.2979 8.69782 10.9072 8.60559 10.8871 8.57878Z" fill="#3F424A"/>
<path opacity="0.16" d="M12.0573 2.19224C11.4496 2.02178 10.0497 3.60587 9.57343 4.16734C9.54075 4.20595 9.47848 4.16936 9.4974 4.12265C9.99023 2.90597 11.4142 1.21094 11.4142 1.21094C11.4293 1.26877 11.4389 1.32509 11.4446 1.37887C11.4759 1.67158 11.6472 1.93174 11.9011 2.08788C11.9527 2.11957 12.0052 2.15431 12.0573 2.19224Z" fill="#414141"/>
<path opacity="0.16" d="M6.71155 3.5865C6.38644 3.05673 5.48853 2.70383 5.48853 2.70383C5.6731 2.64262 5.83427 2.53117 5.95365 2.3833C6.46161 2.91982 6.66751 3.3292 6.75094 3.56846C6.75937 3.59291 6.72514 3.60859 6.71155 3.5865Z" fill="#414141"/>
<path opacity="0.16" d="M8.24033 3.77643C8.2436 3.80611 8.20008 3.81471 8.19148 3.78604C8.03288 3.25813 7.67681 2.12861 7.33691 1.48621C7.34517 1.48436 7.35343 1.48233 7.36186 1.48048C7.37631 1.47711 7.39161 1.4739 7.40641 1.47053C7.54488 1.44102 7.67475 1.38269 7.78708 1.29956C8.03839 1.94753 8.17394 3.18293 8.24033 3.77643Z" fill="#414141"/>
<path opacity="0.1" d="M11.4143 1.2109C10.1208 -0.0548529 7.83642 1.27075 7.78809 1.29908C7.81836 1.27666 7.8476 1.25254 7.87513 1.22641C8.29364 0.834056 9.3357 0.00601505 10.4008 0.319291C11.0742 0.517408 11.3295 0.885651 11.4143 1.2109Z" fill="white"/>
<path opacity="0.1" d="M7.33627 1.48633C7.30892 1.49678 6.42837 1.83333 5.95361 2.38316C5.98406 2.34573 6.01158 2.30611 6.03618 2.26429C6.04427 2.25063 6.05252 2.23748 6.06164 2.22332C6.22849 1.9667 6.57734 1.66961 7.30238 1.49425C7.31373 1.49156 7.32474 1.48903 7.33627 1.48633Z" fill="white"/>
<path opacity="0.1" d="M5.73196 4.44581C5.65318 4.41513 5.56838 4.38545 5.47704 4.35746C5.26735 4.29305 5.08485 4.16137 4.96289 3.98214C4.78589 3.72147 4.67064 3.33147 5.106 2.93389C5.12854 2.91315 5.15262 2.89241 5.17808 2.87218C5.2443 2.81856 5.31775 2.77388 5.39585 2.73999C5.39585 2.73999 4.73927 3.1895 5.73196 4.44581Z" fill="white"/>
<path opacity="0.16" d="M9.92321 5.70243C9.96638 5.7461 10.0092 5.7896 10.0515 5.83277H6.21045C6.25827 5.7864 6.30351 5.7429 6.34582 5.70243C6.51853 5.53719 6.64479 5.42153 6.70912 5.36369C6.74043 5.33486 6.75711 5.32036 6.75711 5.32036H6.74799C6.74799 5.32036 6.72684 5.19508 6.59335 5.02479C6.56927 4.9941 6.5414 4.96173 6.50924 4.92851L10.0756 4.87793C10.0039 4.92936 9.93869 4.97893 9.88038 5.02479C9.81604 5.07571 9.75997 5.12174 9.71284 5.1622C9.60051 5.25916 9.54013 5.32036 9.54013 5.32036C9.54873 5.32829 9.55699 5.33672 9.56507 5.34481V5.34498C9.57127 5.35105 9.57746 5.35745 9.58365 5.36369C9.69976 5.47801 9.8126 5.59081 9.92304 5.70243H9.92321Z" fill="#414141"/>
<path d="M6.97469 10.1601C7.23632 10.2886 7.26436 10.4996 7.0588 10.7926C7.20828 11.7459 7.35776 12.69 7.50759 13.6249C7.54491 13.8819 7.49795 14.1019 7.36739 14.2848C7.25524 14.4317 7.11488 14.5507 6.94665 14.6423C6.61001 14.8257 6.20767 14.9357 5.74031 14.9723C5.44101 14.9357 5.1976 14.7983 5.01097 14.5598C4.89882 14.3948 4.85186 14.1658 4.87078 13.8724C4.92685 13.3959 5.0483 13.0845 5.23545 12.9375C5.3476 12.8459 5.38493 12.8734 5.3476 13.0199C5.19778 13.24 5.14153 13.4784 5.1792 13.7348C5.23528 14.1017 5.5062 14.2848 5.99265 14.2848C6.31037 14.2668 6.60021 14.2024 6.86236 14.0923C7.12399 13.9643 7.26436 13.8173 7.28311 13.6524C7.30151 13.4873 7.28311 13.3133 7.22703 13.1299C7.02096 12.1034 6.82469 11.26 6.63788 10.6C6.5818 10.5451 6.52573 10.481 6.46948 10.4075C6.56288 10.261 6.63788 10.0409 6.69396 9.74756C6.78736 9.87604 6.88077 10.0135 6.97451 10.16L6.97469 10.1601ZM8.04066 10.4901C8.11514 11.0401 8.22747 11.7645 8.37729 12.6625C8.43337 13.1575 8.54569 13.4509 8.71392 13.5425C8.82608 13.616 8.95681 13.6434 9.10663 13.6249C9.27503 13.6069 9.37755 13.5425 9.41523 13.4323C9.30307 13.3044 9.21879 13.1118 9.16271 12.8549C9.18111 12.7449 9.24682 12.6259 9.35915 12.4974C9.4713 12.5524 9.55559 12.6534 9.61167 12.7999C9.64899 12.9833 9.67703 13.1848 9.69578 13.4049C9.69578 13.6618 9.65811 13.8542 9.58363 13.9824C9.48988 14.0923 9.32148 14.1658 9.07859 14.2024C8.87252 14.2024 8.695 14.1474 8.54552 14.0373C8.35837 13.8908 8.22729 13.5608 8.15281 13.0474C8.04066 12.2044 7.90958 11.3701 7.7601 10.5451C7.79743 10.3436 7.84422 10.1421 7.90029 9.94011C7.9937 10.1236 8.04049 10.307 8.04049 10.4901H8.04066ZM8.46141 14.9723C8.38641 15.1373 8.293 15.2747 8.18085 15.3847C8.04978 15.2931 7.92833 15.1832 7.81618 15.0547C7.87226 14.9082 7.95637 14.7617 8.0687 14.6148C8.2371 14.7247 8.36766 14.8443 8.46141 14.9723ZM11.0143 13.8173C11.0888 14.0193 11.1264 14.2757 11.1264 14.5872C11.0514 14.9171 10.93 15.2196 10.7618 15.4946C10.5185 15.8795 10.219 16.136 9.86401 16.2645C9.67686 16.2645 9.43363 16.2459 9.13467 16.2095C8.83537 16.1726 8.59196 16.136 8.40533 16.0996C8.33033 16.0261 8.33962 15.9896 8.43337 15.9896C8.75108 15.9896 9.10663 15.9436 9.49934 15.8522C9.89205 15.6872 10.2471 15.4493 10.5653 15.1373C10.6959 14.9723 10.7898 14.8074 10.8459 14.6425C10.8459 14.4959 10.7802 14.3219 10.6494 14.1199C10.5744 14.0284 10.481 13.8819 10.3689 13.68C10.4062 13.5885 10.4434 13.4785 10.481 13.3501C10.5184 13.2221 10.5744 13.1946 10.6494 13.2676C10.7989 13.4325 10.9204 13.6161 11.0141 13.8176L11.0143 13.8173ZM9.19092 14.8347C9.11592 14.9997 9.02252 15.1372 8.91036 15.2471C8.77929 15.1555 8.65785 15.0456 8.54569 14.9171C8.60177 14.7706 8.68588 14.6241 8.79821 14.4772C8.96661 14.5872 9.09717 14.7067 9.19092 14.8347Z" fill="#5A4A42"/>
</svg>
