<svg width="32" height="32" viewBox="0 0 32 32" fill="none" xmlns="http://www.w3.org/2000/svg">
<path fill-rule="evenodd" clip-rule="evenodd" d="M13.7052 6H18.2952C20.3469 6 21.9722 6 23.2436 6.17486C24.5519 6.35543 25.6112 6.73486 26.4473 7.58971C27.2822 8.44571 27.6528 9.53029 27.8292 10.8697C27.9297 11.6389 27.971 12.5337 27.9877 13.5703C28.0023 13.6572 28.0038 13.7458 27.9922 13.8331C28 14.48 28 15.1794 28 15.936V16.064C28 18.1646 28 19.8286 27.8292 21.1303C27.6528 22.4697 27.2822 23.5543 26.4473 24.4103C25.6112 25.2651 24.5519 25.6446 23.2436 25.8251C21.9711 26 20.3469 26 18.2952 26H13.7052C11.6535 26 10.0282 26 8.75678 25.8251C7.44852 25.6446 6.38919 25.2651 5.55311 24.4103C4.71815 23.5543 4.34755 22.4697 4.17118 21.1303C4.00039 19.8274 4.00039 18.1646 4.00039 16.064V15.936C4.00039 15.1794 4.00039 14.48 4.00821 13.8331C3.99624 13.7459 3.99737 13.6572 4.01155 13.5703C4.02941 12.5337 4.07072 11.6389 4.17118 10.8697C4.34755 9.53029 4.71815 8.44571 5.55311 7.58971C6.38919 6.73486 7.44852 6.35543 8.75678 6.17486C10.0293 6 11.6535 6 13.7052 6ZM5.67702 14.5714C5.67478 15.0149 5.67478 15.4903 5.67478 16C5.67478 18.1794 5.67702 19.7269 5.83106 20.9029C5.98176 22.0514 6.26529 22.7143 6.73746 23.1977C7.20964 23.6811 7.85707 23.9714 8.98003 24.1257C10.1275 24.2834 11.639 24.2857 13.7677 24.2857H18.2327C20.3614 24.2857 21.874 24.2834 23.0215 24.1257C24.1433 23.9714 24.7908 23.6811 25.2629 23.1977C25.7351 22.7143 26.0186 22.0514 26.1693 20.9017C26.3234 19.7269 26.3256 18.1794 26.3256 16C26.3256 15.4903 26.3256 15.0149 26.3234 14.5714H5.67702ZM26.2966 12.8571H5.70381C5.72613 12.1863 5.76408 11.6069 5.83106 11.0971C5.98176 9.94857 6.26529 9.28571 6.73746 8.80229C7.20964 8.31886 7.85707 8.02857 8.98003 7.87429C10.1275 7.71657 11.639 7.71429 13.7677 7.71429H18.2327C20.3614 7.71429 21.874 7.71657 23.0215 7.87429C24.1433 8.02857 24.7908 8.31886 25.2629 8.80229C25.7351 9.28571 26.0186 9.94857 26.1693 11.0983C26.2363 11.6069 26.2743 12.1863 26.2966 12.8571ZM8.46544 20.5714C8.46544 20.3441 8.55364 20.1261 8.71064 19.9653C8.86765 19.8046 9.08059 19.7143 9.30263 19.7143H13.7677C13.9897 19.7143 14.2027 19.8046 14.3597 19.9653C14.5167 20.1261 14.6049 20.3441 14.6049 20.5714C14.6049 20.7988 14.5167 21.0168 14.3597 21.1775C14.2027 21.3383 13.9897 21.4286 13.7677 21.4286H9.30263C9.08059 21.4286 8.86765 21.3383 8.71064 21.1775C8.55364 21.0168 8.46544 20.7988 8.46544 20.5714ZM15.7211 20.5714C15.7211 20.3441 15.8093 20.1261 15.9663 19.9653C16.1233 19.8046 16.3363 19.7143 16.5583 19.7143H18.2327C18.4548 19.7143 18.6677 19.8046 18.8247 19.9653C18.9817 20.1261 19.0699 20.3441 19.0699 20.5714C19.0699 20.7988 18.9817 21.0168 18.8247 21.1775C18.6677 21.3383 18.4548 21.4286 18.2327 21.4286H16.5583C16.3363 21.4286 16.1233 21.3383 15.9663 21.1775C15.8093 21.0168 15.7211 20.7988 15.7211 20.5714Z" fill="black"/>
</svg>
