<svg width="14" height="14" viewBox="0 0 14 14" fill="none" xmlns="http://www.w3.org/2000/svg">
<path fill-rule="evenodd" clip-rule="evenodd" d="M6.99992 0.333344C10.6759 0.333344 13.6666 3.32401 13.6666 7.00001C13.6666 10.676 10.6759 13.6667 6.99992 13.6667C3.32392 13.6667 0.333252 10.676 0.333252 7.00001C0.333252 3.32401 3.32392 0.333344 6.99992 0.333344ZM6.99992 1.33334C3.87525 1.33334 1.33325 3.87534 1.33325 7.00001C1.33325 10.1247 3.87525 12.6667 6.99992 12.6667C10.1246 12.6667 12.6666 10.1247 12.6666 7.00001C12.6666 3.87534 10.1246 1.33334 6.99992 1.33334ZM6.77405 3.73028C7.05072 3.73028 7.27405 3.95428 7.27405 4.23028V7.17828L9.54405 8.53161C9.78072 8.67361 9.85872 8.98028 9.71739 9.21761C9.62339 9.37428 9.45739 9.46161 9.28739 9.46161C9.20005 9.46161 9.11205 9.43894 9.03139 9.39161L6.51805 7.89228C6.36739 7.80161 6.27405 7.63828 6.27405 7.46228V4.23028C6.27405 3.95428 6.49805 3.73028 6.77405 3.73028Z" fill="#666666"/>
</svg>
